<svg 
          width="29.52079963684082" 
          height="32.8165283203125" fill="none" 
          xmlns="http://www.w3.org/2000/svg">
          <path d="M 26.05237152110891 18.00806936808658 C 26.10930582820467 17.495311113081698 26.147262397034726 16.96204309756672 26.147262397034726 16.40826416015625 C 26.147262397034726 15.85448522274578 26.109305393406174 15.321217207230802 26.033392983945163 14.80845895222592 L 29.240691559008724 12.101095013716986 C 29.52536311216225 11.854971056815941 29.601276242752473 11.403743321133675 29.430473310860357 11.055067704062822 L 26.39397614059176 5.37370627772907 C 26.20419510986934 5.004520319455423 25.805657211960337 4.881458707758185 25.464051348176106 5.004520686208707 L 21.68740751755765 6.645346515419078 C 20.890327225286928 5.989015963682959 20.055291781699935 5.455747917605208 19.125364726918132 5.045541307488747 L 18.556021281256154 0.6973510507650644 C 18.499086974160395 0.28714444064860345 18.17645995508031 0 17.796897893635467 0 L 11.723903553098273 0 C 11.344341491653429 0 11.04069300973709 0.28714444064860345 10.983758702641332 0.6973510507650644 L 10.414415256979355 5.045541307488747 C 9.48448820219755 5.455747917605208 8.630473768973584 6.00952627432298 7.8523715613933796 6.645346515419078 L 4.075728183248151 5.004520686208707 C 3.734122319463918 4.860948374196084 3.335582837898614 5.004520319455423 3.145801807176192 5.37370627772907 L 0.10930503989156615 11.055067704062822 C -0.08047599083085583 11.424253662336469 -0.004563305643970117 11.854971056815941 0.29908633220007425 12.101095013716986 L 3.5063858687692493 14.80845895222592 C 3.430473459308238 15.321217207230802 3.3735388234623986 15.874995594511347 3.3735388234623986 16.40826416015625 C 3.3735388234623986 16.941532725801153 3.4114949221444912 17.495311113081698 3.4874073316055023 18.00806936808658 L 0.28010779503632693 20.71543428460427 C -0.004563758117200223 20.961558241505315 -0.08047597669106737 21.41278402117007 0.09032695520104891 21.761459638240922 L 3.1268232700124448 27.44282204258343 C 3.3166043007348667 27.812008000857077 3.715144687246631 27.935070590563072 4.056750551030864 27.81200861211255 L 7.833393024229633 26.171181804893422 C 8.630473316500355 26.82751235662954 9.465509665033803 27.36078040270729 10.395436719815608 27.770987012823753 L 10.964780165477585 32.11917678054306 C 11.040692574938596 32.52938339065952 11.344341491653429 32.8165283203125 11.723903553098273 32.8165283203125 L 17.796897893635467 32.8165283203125 C 18.17645995508031 32.8165283203125 18.4990865393619 32.52938339065952 18.537042744092407 32.11917678054306 L 19.106386189754385 27.770987012823753 C 20.03631324453619 27.36078040270729 20.890328582706616 26.80700204598952 21.66843079028682 26.171181804893422 L 25.44507281101236 27.81200861211255 C 25.78667867479659 27.955580924125172 26.185220192491432 27.812008000857077 26.375001223213854 27.44282204258343 L 29.41149477369661 21.761459638240922 C 29.601275804419032 21.392273679967275 29.525366279474863 20.961558241505315 29.221716641630817 20.71543428460427 L 26.05237152110891 18.00806936808658 L 26.05237152110891 18.00806936808658 Z M 14.76040072336687 22.561363220214844 C 11.629013808355532 22.561363220214844 9.066969886532942 19.79246859428804 9.066969886532942 16.40826416015625 C 9.066969886532942 13.024059726024461 11.629013808355532 10.255165100097656 14.76040072336687 10.255165100097656 C 17.891787638378208 10.255165100097656 20.453831560200797 13.024059726024461 20.453831560200797 16.40826416015625 C 20.453831560200797 19.79246859428804 17.891787638378208 22.561363220214844 14.76040072336687 22.561363220214844 Z" fill="rgb(255,255,255)"/>
        </svg>