<svg width="20" height="22" viewBox="0 0 20 22" fill="none" xmlns="http://www.w3.org/2000/svg">
<path d="M19.6204 13.8772L17.5913 11.8237V9.10331C17.589 7.22335 16.898 5.41104 15.6519 4.01682C14.4059 2.6226 12.6933 1.74551 10.8453 1.55515V0H9.34615V1.55515C7.49816 1.74551 5.78556 2.6226 4.5395 4.01682C3.29343 5.41104 2.60243 7.22335 2.60011 9.10331V11.8237L0.571046 13.8772C0.430467 14.0195 0.351468 14.2124 0.351425 14.4136V16.6894C0.351425 16.8906 0.430396 17.0836 0.570966 17.2258C0.711536 17.3681 0.90219 17.448 1.10099 17.448H6.34791V18.0375C6.3316 18.9999 6.66677 19.9345 7.28919 20.6623C7.91161 21.3901 8.7775 21.8598 9.72093 21.9815C10.242 22.0338 10.7681 21.9751 11.2655 21.8093C11.7628 21.6434 12.2203 21.3741 12.6086 21.0185C12.9969 20.663 13.3074 20.2291 13.5201 19.7448C13.7328 19.2605 13.8429 18.7366 13.8435 18.2066V17.448H19.0904C19.2892 17.448 19.4799 17.3681 19.6205 17.2258C19.761 17.0836 19.84 16.8906 19.84 16.6894V14.4136C19.84 14.2124 19.761 14.0195 19.6204 13.8772ZM12.3444 18.2066C12.3444 18.8102 12.1075 19.3891 11.6858 19.8159C11.2641 20.2427 10.6921 20.4825 10.0957 20.4825C9.49932 20.4825 8.92736 20.2427 8.50565 19.8159C8.08394 19.3891 7.84703 18.8102 7.84703 18.2066V17.448H12.3444V18.2066ZM18.3409 15.9308H1.85055V14.7276L3.87961 12.6741C4.02019 12.5319 4.09918 12.3389 4.09923 12.1377V9.10331C4.09923 7.49375 4.731 5.9501 5.85556 4.81197C6.98011 3.67383 8.50534 3.03444 10.0957 3.03444C11.6861 3.03444 13.2113 3.67383 14.3359 4.81197C15.4604 5.9501 16.0922 7.49375 16.0922 9.10331V12.1377C16.0922 12.3389 16.1712 12.5319 16.3118 12.6741L18.3409 14.7276V15.9308Z" fill="#FF85A1"/>
</svg>
