<svg width="26" height="24" viewBox="0 0 26 24" fill="none" xmlns="http://www.w3.org/2000/svg">
<path d="M13.1 24C6.2941 24 0.791443 18.6353 0.791443 12C0.791443 5.36471 6.2941 0 13.1 0C19.9059 0 25.4086 5.36471 25.4086 12C25.4086 18.6353 19.8335 24 13.1 24ZM13.1 1.41176C7.09054 1.41176 2.23951 6.14118 2.23951 12C2.23951 17.8588 7.09054 22.5882 13.1 22.5882C19.1095 22.5882 23.9605 17.8588 23.9605 12C23.9605 6.14118 19.0371 1.41176 13.1 1.41176Z" fill="#FF85A1"/>
<path d="M6.00448 20.6821L4.70122 20.1174C5.06323 19.2703 6.22169 18.7762 7.45254 18.2115C8.6834 17.6468 10.2039 17.0115 10.2039 16.235V15.1762C9.76945 14.8232 9.04542 14.0468 8.90061 12.9174C8.5386 12.5644 7.95937 11.9291 7.95937 11.0821C7.95937 10.5879 8.17658 10.1644 8.32139 9.88207C8.17658 9.31736 8.03177 8.25854 8.03177 7.41148C8.03177 4.65854 9.98666 2.82324 13.1 2.82324C13.9688 2.82324 15.0549 3.03501 15.6341 3.6703C17.0098 3.95265 18.1682 5.5056 18.1682 7.41148C18.1682 8.61148 17.951 9.59971 17.8062 10.0938C17.951 10.3056 18.0958 10.6585 18.0958 11.0821C18.0958 11.9997 17.589 12.635 17.1546 12.9174C17.0098 14.0468 16.3582 14.7527 15.9237 15.1056V16.235C15.9237 16.8703 17.227 17.3644 18.3855 17.7879C19.7611 18.2821 21.2092 18.8468 21.716 19.9762L20.3403 20.4703C20.1231 19.9056 18.9647 19.4821 17.8786 19.1291C16.2858 18.5644 14.4757 17.9291 14.4757 16.3056V14.4703L14.8377 14.2585C14.8377 14.2585 15.7065 13.6938 15.7065 12.5644V12.0703L16.1409 11.8585C16.2134 11.8585 16.5754 11.6468 16.5754 11.0821C16.5754 10.9409 16.4306 10.7291 16.3582 10.6585L16.0685 10.3762L16.2134 10.0232C16.2134 10.0232 16.5754 8.89383 16.5754 7.48207C16.5754 6.14089 15.7789 5.15265 15.1273 5.15265H14.6929L14.4757 4.79971C14.4757 4.51736 13.9688 4.23501 13.1 4.23501C10.8555 4.23501 9.47984 5.43501 9.47984 7.41148C9.47984 8.32912 9.84186 9.88207 9.84186 9.88207L9.91426 10.235L9.62465 10.5879C9.55224 10.5879 9.40744 10.7997 9.40744 11.0821C9.40744 11.435 9.84186 11.8585 10.0591 11.9997L10.3487 12.2115V12.5644C10.3487 13.6232 11.2899 14.1879 11.2899 14.2585L11.6519 14.4703V16.3056C11.6519 17.9997 9.76945 18.8468 8.03177 19.5527C7.23534 19.835 6.14928 20.3291 6.00448 20.6821Z" fill="#FF85A1"/>
</svg>
